<svg width="50" height="50" viewBox="0 0 50 50" fill="none" xmlns="http://www.w3.org/2000/svg">
<path d="M49.542 8.27051L45.3125 4.04004C44.7266 3.4541 43.9316 3.125 43.1025 3.125H28.125V1.5625C28.125 0.699219 27.4258 0 26.5625 0H23.4375C22.5742 0 21.875 0.699219 21.875 1.5625V3.125H5.46875C4.1748 3.125 3.125 4.1748 3.125 5.46875V13.2812C3.125 14.5752 4.1748 15.625 5.46875 15.625H43.1025C43.9316 15.625 44.7256 15.2959 45.3125 14.71L49.542 10.4805C50.1523 9.86914 50.1523 8.88086 49.542 8.27051ZM21.875 48.4375C21.875 49.3008 22.5742 50 23.4375 50H26.5625C27.4258 50 28.125 49.3008 28.125 48.4375V37.5H21.875V48.4375ZM44.5312 21.875H28.125V18.75H21.875V21.875H6.89746C6.06836 21.875 5.27441 22.2041 4.6875 22.79L0.458008 27.0205C-0.152344 27.6309 -0.152344 28.6201 0.458008 29.2305L4.6875 33.46C5.27344 34.0459 6.06836 34.375 6.89746 34.375H44.5312C45.8252 34.375 46.875 33.3252 46.875 32.0312V24.2188C46.875 22.9248 45.8252 21.875 44.5312 21.875Z" fill="#606060"/>
</svg>
