<?xml version="1.0" encoding="UTF-8" standalone="no"?>
<svg
   xmlns:dc="http://purl.org/dc/elements/1.1/"
   xmlns:cc="http://creativecommons.org/ns#"
   xmlns:rdf="http://www.w3.org/1999/02/22-rdf-syntax-ns#"
   xmlns:svg="http://www.w3.org/2000/svg"
   xmlns="http://www.w3.org/2000/svg"
   xmlns:sodipodi="http://sodipodi.sourceforge.net/DTD/sodipodi-0.dtd"
   xmlns:inkscape="http://www.inkscape.org/namespaces/inkscape"
   aria-hidden="true"
   focusable="false"
   data-prefix="fas"
   data-icon="arrow-circle-right"
   class="svg-inline--fa fa-arrow-circle-right fa-w-16"
   role="img"
   viewBox="0 0 512 512"
   version="1.1"
   id="svg4"
   sodipodi:docname="arrow-circle-right-solid.svg"
   inkscape:version="0.92.5 (2060ec1f9f, 2020-04-08)">
  <metadata
     id="metadata10">
    <rdf:RDF>
      <cc:Work
         rdf:about="">
        <dc:format>image/svg+xml</dc:format>
        <dc:type
           rdf:resource="http://purl.org/dc/dcmitype/StillImage" />
      </cc:Work>
    </rdf:RDF>
  </metadata>
  <defs
     id="defs8" />
  <sodipodi:namedview
     pagecolor="#ffffff"
     bordercolor="#666666"
     borderopacity="1"
     objecttolerance="10"
     gridtolerance="10"
     guidetolerance="10"
     inkscape:pageopacity="0"
     inkscape:pageshadow="2"
     inkscape:window-width="1366"
     inkscape:window-height="705"
     id="namedview6"
     showgrid="false"
     inkscape:zoom="0.4609375"
     inkscape:cx="-144.27119"
     inkscape:cy="256"
     inkscape:window-x="-8"
     inkscape:window-y="-8"
     inkscape:window-maximized="1"
     inkscape:current-layer="svg4"
     inkscape:snap-page="true" />
  <path
     d="M 256,0 C 397.41935,0 512,114.58065 512,256 512,397.41935 397.41935,512 256,512 114.58065,512 0,397.41935 0,256 0,114.58065 114.58065,0 256,0 Z m -29.83226,148.23226 77.93549,74.73548 H 115.6129 c -13.72903,0 -24.77419,11.04516 -24.77419,24.7742 v 16.51612 c 0,13.72904 11.04516,24.7742 24.77419,24.7742 h 188.49033 l -77.93549,74.73548 c -10.0129,9.6 -10.21935,25.6 -0.4129,35.40645 l 11.35484,11.25162 c 9.70322,9.70322 25.39355,9.70322 34.99355,0 L 409.08387,273.54839 c 9.70323,-9.70323 9.70323,-25.39355 0,-34.99355 L 272.10323,101.47097 c -9.70323,-9.703228 -25.39355,-9.703228 -34.99355,0 l -11.35484,11.25161 c -9.80645,9.90968 -9.6,25.90968 0.4129,35.50968 z"
     id="path2"
     style="fill:#474747;fill-opacity:1;stroke-width:1.03225803"
     inkscape:connector-curvature="0" />
</svg>
