<svg width="38" height="50" viewBox="0 0 38 50" fill="none" xmlns="http://www.w3.org/2000/svg">
<g clip-path="url(#clip0)">
<path d="M32.8125 0H4.6875C2.09961 0 0 2.09961 0 4.6875V45.3125C0 47.9004 2.09961 50 4.6875 50H32.8125C35.4004 50 37.5 47.9004 37.5 45.3125V4.6875C37.5 2.09961 35.4004 0 32.8125 0ZM14.0625 3.125H23.4375C24.2969 3.125 25 3.82812 25 4.6875C25 5.54688 24.2969 6.25 23.4375 6.25H14.0625C13.2031 6.25 12.5 5.54688 12.5 4.6875C12.5 3.82812 13.2031 3.125 14.0625 3.125ZM18.75 15.625C22.1973 15.625 25 18.4277 25 21.875C25 25.3223 22.1973 28.125 18.75 28.125C15.3027 28.125 12.5 25.3223 12.5 21.875C12.5 18.4277 15.3027 15.625 18.75 15.625ZM29.6875 38.75C29.6875 39.7852 28.7109 40.625 27.5 40.625H10C8.78906 40.625 7.8125 39.7852 7.8125 38.75V36.875C7.8125 33.7695 10.752 31.25 14.375 31.25H14.8633C16.0645 31.748 17.373 32.0312 18.75 32.0312C20.127 32.0312 21.4453 31.748 22.6367 31.25H23.125C26.748 31.25 29.6875 33.7695 29.6875 36.875V38.75Z" fill="#606060"/>
</g>
<defs>
<clipPath id="clip0">
<rect width="37.5" height="50" fill="white"/>
</clipPath>
</defs>
</svg>
