<svg width="49" height="50" viewBox="0 0 49 50" fill="none" xmlns="http://www.w3.org/2000/svg">
<g clip-path="url(#clip0)">
<path d="M16.239 38.8086C16.239 39.0039 16.0139 39.1602 15.73 39.1602C15.407 39.1895 15.1819 39.0332 15.1819 38.8086C15.1819 38.6133 15.407 38.457 15.6909 38.457C15.9845 38.4277 16.239 38.584 16.239 38.8086ZM13.1948 38.3691C13.1263 38.5645 13.3221 38.7891 13.6157 38.8477C13.8702 38.9453 14.1639 38.8477 14.2226 38.6523C14.2814 38.457 14.0954 38.2324 13.8017 38.1445C13.5472 38.0762 13.2634 38.1738 13.1948 38.3691ZM17.5213 38.2031C17.2375 38.2715 17.0417 38.457 17.0711 38.6816C17.1004 38.877 17.3549 39.0039 17.6486 38.9355C17.9324 38.8672 18.1282 38.6816 18.0988 38.4863C18.0695 38.3008 17.8052 38.1738 17.5213 38.2031ZM23.9621 0.78125C10.3855 0.78125 0 11.0645 0 24.6094C0 35.4395 6.83234 44.707 16.5914 47.9688C17.8443 48.1934 18.2848 47.4219 18.2848 46.7871C18.2848 46.1816 18.2555 42.8418 18.2555 40.791C18.2555 40.791 11.4035 42.2559 9.96464 37.8809C9.96464 37.8809 8.84876 35.0391 7.24345 34.3066C7.24345 34.3066 5.0019 32.7734 7.40007 32.8027C7.40007 32.8027 9.83739 32.998 11.1784 35.3223C13.3221 39.0918 16.9144 38.0078 18.3142 37.3633C18.5393 35.8008 19.1756 34.7168 19.8803 34.0723C14.4086 33.4668 8.88791 32.6758 8.88791 23.2812C8.88791 20.5957 9.63184 19.248 11.198 17.5293C10.9435 16.8945 10.1115 14.2773 11.4525 10.8984C13.4983 10.2637 18.2065 13.5352 18.2065 13.5352C20.1642 12.9883 22.2687 12.7051 24.3537 12.7051C26.4386 12.7051 28.5431 12.9883 30.5008 13.5352C30.5008 13.5352 35.2091 10.2539 37.2548 10.8984C38.5959 14.2871 37.7639 16.8945 37.5093 17.5293C39.0755 19.2578 40.0348 20.6055 40.0348 23.2812C40.0348 32.7051 34.2694 33.457 28.7976 34.0723C29.6982 34.8438 30.4617 36.3086 30.4617 38.6035C30.4617 41.8945 30.4323 45.9668 30.4323 46.7676C30.4323 47.4023 30.8826 48.1738 32.1257 47.9492C41.9142 44.707 48.5507 35.4395 48.5507 24.6094C48.5507 11.0645 37.5387 0.78125 23.9621 0.78125ZM9.51437 34.4629C9.38713 34.5605 9.41649 34.7852 9.58289 34.9707C9.73951 35.127 9.96464 35.1953 10.0919 35.0684C10.2191 34.9707 10.1898 34.7461 10.0234 34.5605C9.86676 34.4043 9.64163 34.3359 9.51437 34.4629ZM8.45722 33.6719C8.3887 33.7988 8.48659 33.9551 8.68236 34.0527C8.83897 34.1504 9.03474 34.1211 9.10326 33.9844C9.17178 33.8574 9.07389 33.7012 8.87813 33.6035C8.68236 33.5449 8.52574 33.5742 8.45722 33.6719ZM11.6287 37.1484C11.4721 37.2754 11.5308 37.5684 11.7559 37.7539C11.9811 37.9785 12.2649 38.0078 12.3922 37.8516C12.5194 37.7246 12.4607 37.4316 12.2649 37.2461C12.0496 37.0215 11.7559 36.9922 11.6287 37.1484ZM10.5128 35.7129C10.3562 35.8105 10.3562 36.0645 10.5128 36.2891C10.6694 36.5137 10.9337 36.6113 11.061 36.5137C11.2176 36.3867 11.2176 36.1328 11.061 35.9082C10.9239 35.6836 10.6694 35.5859 10.5128 35.7129Z" fill="white"/>
</g>
<defs>
<clipPath id="clip0">
<rect width="48.5507" height="50" fill="white"/>
</clipPath>
</defs>
</svg>
