<svg width="63" height="50" viewBox="0 0 63 50" fill="none" xmlns="http://www.w3.org/2000/svg">
<g clip-path="url(#clip0)">
<path d="M27.2363 49.9512L21.2793 48.2227C20.6543 48.0469 20.3027 47.3926 20.4785 46.7676L33.8086 0.849611C33.9844 0.224611 34.6386 -0.126952 35.2636 0.0488294L41.2207 1.77735C41.8457 1.95313 42.1972 2.60742 42.0215 3.23242L28.6914 49.1504C28.5058 49.7754 27.8613 50.1367 27.2363 49.9512ZM16.1035 38.9941L20.3515 34.4629C20.8008 33.9844 20.7715 33.2227 20.2734 32.7832L11.4258 25L20.2734 17.2168C20.7715 16.7773 20.8105 16.0156 20.3515 15.5371L16.1035 11.0059C15.664 10.5371 14.9219 10.5078 14.4433 10.957L0.371086 24.1406C-0.126961 24.5996 -0.126961 25.3906 0.371086 25.8496L14.4433 39.043C14.9219 39.4922 15.664 39.4727 16.1035 38.9941ZM48.0566 39.0527L62.1289 25.8594C62.6269 25.4004 62.6269 24.6094 62.1289 24.1504L48.0566 10.9473C47.5879 10.5078 46.8457 10.5273 46.3965 10.9961L42.1484 15.5273C41.6992 16.0059 41.7285 16.7676 42.2265 17.207L51.0742 25L42.2265 32.7832C41.7285 33.2227 41.6894 33.9844 42.1484 34.4629L46.3965 38.9941C46.8359 39.4727 47.5781 39.4922 48.0566 39.0527Z" fill="#606060"/>
</g>
<defs>
<clipPath id="clip0">
<rect width="62.5" height="50" fill="white"/>
</clipPath>
</defs>
</svg>
